<svg width="25" height="19" viewBox="0 0 25 19" fill="none" xmlns="http://www.w3.org/2000/svg">
<path d="M23.4531 3.5625H19C17.8558 3.5625 17.8137 2.49553 17.8125 2.375V1.78125C17.8125 1.03431 16.9872 0 15.4375 0H9.51841C7.77575 0 7.14341 1.06519 7.14341 1.78125V2.37144C7.14281 2.42013 7.11491 3.5625 5.9375 3.5625H1.48438C1.09084 3.56297 0.713556 3.71951 0.435284 3.99778C0.157012 4.27606 0.000471395 4.65334 0 5.04688L0 15.7344C0 16.5526 0.665594 17.2188 1.48438 17.2188H5.04688C5.12561 17.2188 5.20112 17.1875 5.2568 17.1318C5.31247 17.0761 5.34375 17.0006 5.34375 16.9219C5.34375 16.8431 5.31247 16.7676 5.2568 16.712C5.20112 16.6563 5.12561 16.625 5.04688 16.625H1.48438C0.993344 16.625 0.59375 16.2254 0.59375 15.7344V8.3125H5.34375C4.95028 9.25272 4.74842 10.262 4.75 11.2812C4.75 15.5373 8.21275 19 12.4688 19C16.7248 19 20.1875 15.5373 20.1875 11.2812C20.1875 10.2297 19.9743 9.22688 19.592 8.3125H24.3438V15.7344C24.3438 16.2254 23.9442 16.625 23.4531 16.625H19.2969C19.2181 16.625 19.1426 16.6563 19.087 16.712C19.0313 16.7676 19 16.8431 19 16.9219C19 17.0006 19.0313 17.0761 19.087 17.1318C19.1426 17.1875 19.2181 17.2188 19.2969 17.2188H23.4531C24.2719 17.2188 24.9375 16.5526 24.9375 15.7344V5.04688C24.9375 4.22869 24.2719 3.5625 23.4531 3.5625ZM12.4688 18.4062C8.53991 18.4062 5.34375 15.2101 5.34375 11.2812C5.34375 7.35241 8.53991 4.15625 12.4688 4.15625C16.3976 4.15625 19.5938 7.35241 19.5938 11.2812C19.5938 15.2101 16.3976 18.4062 12.4688 18.4062ZM19.4453 7.71875C19.403 7.71923 19.3613 7.72875 19.323 7.74666C18.0381 5.26538 15.4506 3.5625 12.4688 3.5625C9.48694 3.5625 6.89938 5.26538 5.6145 7.74666C5.57618 7.72875 5.53448 7.71923 5.49219 7.71875H0.59375V5.04688C0.59375 4.55584 0.993344 4.15625 1.48438 4.15625H5.9375C7.3435 4.15625 7.73003 2.99369 7.73716 2.375V1.78125C7.73716 1.30387 8.21156 0.59375 9.51841 0.59375H15.4375C16.6808 0.59375 17.2188 1.37987 17.2188 1.78125V2.375C17.2188 2.99131 17.591 4.15625 19 4.15625H23.4531C23.9442 4.15625 24.3438 4.55584 24.3438 5.04688V7.71875H19.4453Z" fill="#141010"/>
<path d="M5.64062 2.96875C5.71936 2.96875 5.79487 2.93747 5.85055 2.8818C5.90622 2.82612 5.9375 2.75061 5.9375 2.67188V2.07812C5.9375 1.58709 5.53791 1.1875 5.04688 1.1875H2.67188C2.18084 1.1875 1.78125 1.58709 1.78125 2.07812V2.67188C1.78125 2.75061 1.81253 2.82612 1.8682 2.8818C1.92388 2.93747 1.99939 2.96875 2.07812 2.96875C2.15686 2.96875 2.23237 2.93747 2.28805 2.8818C2.34372 2.82612 2.375 2.75061 2.375 2.67188V2.07812C2.375 1.99939 2.40628 1.92388 2.46195 1.8682C2.51763 1.81253 2.59314 1.78125 2.67188 1.78125H5.04688C5.12561 1.78125 5.20112 1.81253 5.2568 1.8682C5.31247 1.92388 5.34375 1.99939 5.34375 2.07812V2.67188C5.34375 2.75061 5.37503 2.82612 5.4307 2.8818C5.48638 2.93747 5.56189 2.96875 5.64062 2.96875ZM12.4688 5.9375C9.52197 5.9375 7.125 8.33506 7.125 11.2812C7.125 14.2274 9.52197 16.625 12.4688 16.625C15.4155 16.625 17.8125 14.2274 17.8125 11.2812C17.8125 8.33506 15.4155 5.9375 12.4688 5.9375ZM12.4688 16.0312C9.84972 16.0312 7.71875 13.9003 7.71875 11.2812C7.71875 8.66222 9.84972 6.53125 12.4688 6.53125C15.0878 6.53125 17.2188 8.66222 17.2188 11.2812C17.2188 13.9003 15.0878 16.0312 12.4688 16.0312Z" fill="#141010"/>
</svg>
