<svg width="20" height="19" viewBox="0 0 20 19" fill="none" xmlns="http://www.w3.org/2000/svg">
<path fill-rule="evenodd" clip-rule="evenodd" d="M10.6 9.02785L14.491 12.7243L13.643 13.5308L9.4 9.5V3.8H10.6V9.02785ZM10 19C4.477 19 0 14.7469 0 9.5C0 4.25315 4.477 0 10 0C15.523 0 20 4.25315 20 9.5C20 14.7469 15.523 19 10 19ZM10 17.86C12.3339 17.86 14.5722 16.9792 16.2225 15.4114C17.8729 13.8436 18.8 11.7172 18.8 9.5C18.8 7.28279 17.8729 5.15639 16.2225 3.58859C14.5722 2.02078 12.3339 1.14 10 1.14C7.66609 1.14 5.42778 2.02078 3.77746 3.58859C2.12714 5.15639 1.2 7.28279 1.2 9.5C1.2 11.7172 2.12714 13.8436 3.77746 15.4114C5.42778 16.9792 7.66609 17.86 10 17.86Z" fill="#141010" fill-opacity="0.8"/>
</svg>
