<svg width="9" height="19" viewBox="0 0 9 19" fill="none" xmlns="http://www.w3.org/2000/svg">
<path d="M3.93668 19V16.7267C2.99451 16.603 2.18521 16.2711 1.50879 15.7309C0.832357 15.1907 0.329429 14.4434 0 13.4889L1.01794 13.0374C1.33492 13.8741 1.7705 14.5186 2.32467 14.9709C2.87884 15.4232 3.62994 15.6485 4.57797 15.6471C5.41252 15.6471 6.17533 15.4354 6.8664 15.0122C7.55747 14.589 7.90264 13.9065 7.9019 12.9647C7.9019 12.1697 7.64788 11.5311 7.13983 11.0491C6.63104 10.567 5.68009 10.0979 4.28697 9.64194C2.8675 9.18222 1.86859 8.65692 1.29026 8.06606C0.711932 7.47445 0.422767 6.70439 0.422767 5.75588C0.422767 4.71722 0.814056 3.88755 1.59663 3.26688C2.37921 2.64696 3.15886 2.31167 3.93558 2.261V0H5.03368V2.261C5.79429 2.33849 6.44729 2.55308 6.99268 2.90476C7.53807 3.25645 7.99048 3.75678 8.34993 4.40576L7.37372 4.91318C7.11237 4.43184 6.7522 4.04216 6.29319 3.74412C5.83419 3.44608 5.25 3.29706 4.54063 3.29706C3.6929 3.29706 2.97767 3.52543 2.39495 3.98218C1.81223 4.43818 1.52086 5.02941 1.52086 5.75588C1.52086 6.44212 1.75988 6.99796 2.23792 7.42341C2.71669 7.84961 3.6757 8.29406 5.11493 8.75676C6.44729 9.18594 7.42826 9.73769 8.05783 10.412C8.68594 11.0863 9 11.9327 9 12.9513C9 14.0734 8.61201 14.9649 7.83602 15.6258C7.06003 16.2867 6.12592 16.6578 5.03368 16.739V19H3.93668Z" fill="#141010" fill-opacity="0.8"/>
</svg>
