<svg width="38" height="38" viewBox="0 0 38 38" fill="none" xmlns="http://www.w3.org/2000/svg">
<g filter="url(#filter0_i_258_330)">
<rect width="38" height="38" rx="4" fill="#141010" fill-opacity="0.8"/>
<path d="M7.06278 20.256C7.18278 19.632 7.80678 18.372 8.47878 17.412C10.7108 14.232 14.2268 11.196 16.8668 10.188C17.2148 10.056 17.5148 9.912 17.5268 9.852C17.5388 9.816 17.9108 9.78 18.3308 9.804C19.0148 9.828 19.3628 10.08 19.5068 10.08C19.8068 10.08 20.7788 11.46 20.9708 12.144C21.1748 12.852 21.0188 14.136 20.5748 15.504C20.2028 16.668 19.1468 19.044 18.9668 19.14C18.8948 19.176 18.7868 19.38 18.7028 19.572C18.5228 20.04 18.3308 20.34 18.2588 20.28C18.2228 20.256 18.1628 20.364 18.1148 20.52C17.9948 20.88 17.5628 21.6 17.4548 21.6C17.4188 21.6 17.3708 21.684 17.3468 21.768C17.3228 21.864 17.1548 22.14 16.9748 22.38C16.7948 22.62 16.6388 22.872 16.6268 22.932C16.6028 23.016 16.5188 23.112 16.4348 23.196C16.3388 23.268 16.2668 23.364 16.2548 23.4C16.2308 23.484 15.1748 24.912 14.3708 25.956C12.7988 27.972 10.8308 29.412 9.91878 29.196C9.57078 29.112 9.00678 28.44 8.92278 27.984C8.89878 27.768 8.88678 27.348 8.92278 27.06C8.95878 26.544 9.03078 26.4 9.90678 24.888C10.9148 23.16 11.4548 22.368 12.4148 21.288C13.4468 20.112 14.3228 19.296 15.1268 18.732C15.7988 18.276 15.9788 18.192 16.3388 18.192C16.9268 18.192 17.3108 18.372 17.5628 18.756L17.7548 19.08L17.7908 18.744C17.8148 18.528 17.8628 18.408 17.9348 18.408C17.9828 18.408 18.0308 18.336 18.0188 18.24C18.0188 18.156 18.0548 18.084 18.1268 18.084C18.1988 18.084 18.2348 18 18.2348 17.868C18.2348 17.76 18.2708 17.652 18.3308 17.652C18.3788 17.652 18.5108 17.4 18.6308 17.1C18.9308 16.32 19.0388 16.068 19.2908 15.576C19.5548 15.048 19.8788 13.992 19.8308 13.824C19.8068 13.764 19.8548 13.704 19.9148 13.704C20.0108 13.704 20.0228 13.68 19.9748 13.632C19.8548 13.524 19.8188 13.176 19.9388 13.176C19.9868 13.176 20.0348 13.224 20.0468 13.296C20.0828 13.512 20.1308 12.876 20.1428 12.228C20.1428 11.928 20.0948 11.688 20.0228 11.736C19.9628 11.772 19.9508 11.736 20.0108 11.652C20.2268 11.28 19.7348 10.92 18.9788 10.92C16.7348 10.92 12.9308 13.596 10.2428 17.052C9.49878 18.036 8.59878 19.488 8.31078 20.22L8.10678 20.7L8.38278 20.304C8.52678 20.076 8.69478 19.896 8.74278 19.896C8.80278 19.896 8.79078 19.98 8.71878 20.088C8.46678 20.484 8.39478 20.724 8.51478 20.844C8.57478 20.916 8.58678 21.048 8.53878 21.132C8.47878 21.216 8.47878 21.288 8.53878 21.288C8.74278 21.288 8.56278 21.696 8.31078 21.828C7.96278 21.996 7.67478 21.84 7.30278 21.3C7.01478 20.856 6.99078 20.712 7.06278 20.256ZM18.7508 17.436C18.6068 17.7 18.4628 18.024 18.4268 18.132C18.3548 18.432 18.8588 17.568 18.9428 17.232C18.9908 17.04 18.9308 17.112 18.7508 17.436ZM18.2948 18.432C18.2828 18.396 18.2348 18.456 18.2108 18.576C18.1748 18.708 18.1868 18.72 18.2468 18.636C18.3068 18.552 18.3188 18.468 18.2948 18.432ZM14.9828 18.984C14.8868 19.08 14.8268 19.152 14.8628 19.152C14.8868 19.152 14.9948 19.08 15.0788 18.984C15.1748 18.9 15.2228 18.828 15.1988 18.828C15.1748 18.828 15.0788 18.9 14.9828 18.984ZM9.75078 26.244C9.87078 25.956 10.1588 25.404 10.3748 25.032C10.7948 24.288 11.0108 23.952 11.7428 22.932C12.1628 22.344 12.4268 22.02 13.1708 21.168C13.8188 20.424 15.1748 19.272 15.7028 18.996C16.3028 18.684 16.4348 18.564 16.0028 18.72C15.3908 18.96 15.1868 19.08 14.3348 19.824C13.3268 20.7 13.1948 20.676 14.1308 19.8L14.7428 19.212L14.1308 19.728C13.5308 20.244 13.0868 20.736 13.3388 20.604C13.5308 20.484 13.4468 20.712 13.2428 20.844C13.1108 20.952 13.0748 20.94 13.0508 20.844C13.0628 20.748 13.0148 20.772 12.9308 20.904C12.8588 21.012 12.8588 21.06 12.9308 21.012C13.1228 20.916 13.0388 21.048 12.6548 21.504C12.4388 21.756 12.2348 21.912 12.1868 21.864C12.1388 21.828 12.1148 21.84 12.1388 21.9C12.1508 21.96 11.8268 22.488 11.4308 23.064C10.6628 24.132 9.71478 25.896 9.58278 26.472C9.52278 26.7 9.57078 26.64 9.75078 26.244ZM9.71478 27.984C9.72678 28.188 10.3868 27.936 11.0588 27.492C11.6468 27.096 13.3148 25.368 13.8548 24.564C14.0108 24.348 14.1668 24.168 14.2148 24.168C14.2628 24.168 14.3108 24.108 14.3348 24.036C14.3588 23.952 14.7308 23.376 15.1628 22.764C15.6068 22.14 16.0748 21.444 16.2188 21.228C17.3588 19.356 17.4308 19.236 17.3468 19.092C17.2508 18.9 16.9148 18.888 16.8548 19.068C16.8188 19.164 16.8068 19.164 16.7948 19.08C16.7828 18.912 16.1828 19.056 15.6068 19.38C14.7788 19.836 13.1468 21.36 12.8588 21.936C12.8348 22.008 12.6908 22.164 12.5708 22.272C12.2588 22.536 11.3468 23.844 10.8668 24.72C10.2788 25.764 9.69078 27.456 9.71478 27.984ZM16.6868 20.856C16.7588 20.772 16.8308 20.652 16.8548 20.592C16.8668 20.532 16.8188 20.568 16.7348 20.652C16.6628 20.736 16.5788 20.856 16.5668 20.904C16.5548 20.976 16.6028 20.952 16.6868 20.856ZM15.0908 23.316C14.8388 23.616 14.7308 23.856 14.9228 23.688C14.9828 23.628 15.0908 23.46 15.1628 23.316L15.3068 23.052L15.0908 23.316ZM9.78678 28.44C9.83478 28.584 10.6868 28.248 11.1428 27.912C11.6228 27.564 12.6548 26.58 13.0748 26.064C13.2668 25.836 13.4588 25.692 13.5068 25.728C13.5548 25.776 13.5788 25.752 13.5428 25.68C13.5188 25.62 13.7708 25.224 14.0828 24.804C14.3828 24.372 14.6228 24.024 14.6108 24C14.5988 23.976 14.3828 24.228 14.1428 24.552C13.8908 24.888 13.5548 25.308 13.3988 25.488C13.2308 25.68 12.9908 25.968 12.8588 26.148C12.3548 26.82 10.2908 28.344 9.87078 28.344C9.81078 28.344 9.77478 28.38 9.78678 28.44ZM19.8068 16.26C19.9388 16.26 20.0588 15.912 19.9748 15.804C19.9508 15.756 19.9988 15.456 20.0948 15.12C20.1908 14.784 20.2028 14.676 20.1308 14.88C18.9068 18.12 16.9988 21.48 14.4668 24.804C13.5788 25.98 13.5308 26.04 13.7348 25.92C13.8308 25.872 13.8308 25.896 13.7708 25.98C13.7108 26.04 13.6388 26.064 13.6028 26.04C13.5548 26.004 13.3628 26.196 13.1468 26.448C12.4868 27.252 11.1308 28.488 10.7348 28.644C10.5188 28.716 10.3508 28.824 10.3388 28.872C10.3028 28.968 10.6748 28.86 11.1188 28.644C11.5988 28.404 12.6308 27.516 13.2548 26.82C14.6948 25.164 16.4828 22.692 16.3268 22.56C16.2668 22.512 16.2668 22.428 16.3268 22.356C16.4108 22.26 16.4588 22.26 16.4828 22.344C16.5428 22.572 18.3068 19.728 19.0508 18.192C19.4348 17.376 19.4948 17.22 19.3028 17.436C19.1828 17.58 19.1708 17.58 19.2068 17.424C19.2428 17.316 19.3028 17.232 19.3628 17.232C19.4108 17.232 19.4468 17.148 19.4348 17.052C19.4228 16.932 19.4468 16.896 19.5188 16.944C19.5668 16.992 19.6268 16.98 19.6388 16.932C19.6508 16.86 19.6268 16.788 19.5668 16.764C19.4828 16.704 19.4828 16.68 19.5908 16.632C19.6628 16.596 19.7228 16.512 19.7108 16.428C19.7108 16.344 19.7468 16.26 19.8068 16.26ZM20.3588 14.232C20.3108 14.232 20.2508 14.292 20.2268 14.352C20.2148 14.412 20.2508 14.436 20.3108 14.4C20.3828 14.364 20.4428 14.304 20.4548 14.292C20.4668 14.256 20.4188 14.232 20.3588 14.232ZM19.8188 15.012C19.8188 14.904 19.7828 14.988 19.7228 15.204C19.6748 15.408 19.6628 15.492 19.7228 15.396C19.7708 15.288 19.8188 15.12 19.8188 15.012ZM19.4588 16.056C19.5068 15.816 19.5068 15.828 19.3628 16.104C19.2668 16.284 19.1708 16.524 19.1468 16.644C19.0868 16.812 19.1108 16.8 19.2308 16.596C19.3148 16.44 19.4228 16.2 19.4588 16.056ZM17.5148 10.476C17.2988 10.608 17.2868 10.632 17.4788 10.572C17.5868 10.524 17.7908 10.476 17.9348 10.428C18.0788 10.404 18.1988 10.332 18.2108 10.284C18.2468 10.164 17.8148 10.284 17.5148 10.476ZM15.7148 11.856C15.9908 11.664 15.9908 11.664 15.6428 11.844C14.6948 12.348 12.5708 14.076 11.7908 14.988C11.6468 15.156 11.7188 15.096 12.7868 14.112C13.3628 13.584 14.7308 12.528 15.7148 11.856ZM16.2668 11.568C16.3988 11.508 16.5068 11.436 16.5188 11.4C16.5188 11.376 16.4228 11.4 16.3028 11.46C16.1708 11.52 16.0628 11.604 16.0508 11.628C16.0388 11.664 16.1348 11.628 16.2668 11.568ZM17.0948 10.5C17.0708 10.5 17.0348 10.548 17.0228 10.608C17.0108 10.668 17.0468 10.716 17.1068 10.716C17.1668 10.716 17.1908 10.668 17.1788 10.608C17.1548 10.548 17.1188 10.5 17.0948 10.5ZM16.8308 11.244C16.7108 11.352 16.7108 11.352 16.8668 11.292C16.9748 11.256 17.0468 11.196 17.0348 11.172C17.0108 11.124 16.9268 11.172 16.8308 11.244ZM9.12678 17.448C9.00678 17.616 8.91078 17.772 8.94678 17.772C8.97078 17.772 9.17478 17.52 9.41478 17.196C10.2668 16.044 12.1628 14.052 13.1948 13.212C14.1668 12.432 15.0188 11.784 15.1028 11.784C15.1388 11.784 15.2828 11.688 15.4148 11.592C15.5588 11.496 15.9068 11.292 16.2068 11.172C16.4948 11.028 16.7468 10.884 16.7708 10.824C16.8068 10.668 16.5308 10.692 16.3148 10.872C16.2188 10.956 16.1228 11.004 16.0988 10.968C16.0628 10.92 15.0308 11.52 14.5748 11.856C14.2748 12.084 14.2028 12.024 14.4788 11.76C14.6108 11.628 14.4428 11.724 14.0948 11.964C12.6788 12.972 10.4588 15.084 10.4828 15.396C10.4948 15.492 10.2668 15.828 9.97878 16.164C9.69078 16.512 9.43878 16.86 9.41478 16.956C9.39078 17.052 9.25878 17.268 9.12678 17.448ZM19.0661 26.604C18.8861 25.824 18.9701 24.66 19.2941 23.448C19.6301 22.164 20.2301 20.904 21.4661 18.828C22.1741 17.664 23.1821 16.176 23.7821 15.42C24.8621 14.076 25.3301 13.56 26.0141 12.888C26.2421 12.672 26.4341 12.468 26.4461 12.444C26.4701 12.336 28.1141 10.872 28.5821 10.536C29.0021 10.236 29.6861 9.852 29.8901 9.804C29.9621 9.792 30.1301 9.744 30.2621 9.708C30.3941 9.672 30.5861 9.636 30.6941 9.612C30.7901 9.612 30.8981 9.588 30.9221 9.564C30.9821 9.504 31.7621 9.708 31.8821 9.804C31.9421 9.864 32.0741 9.972 32.1821 10.068C32.4101 10.26 32.5181 10.488 32.5181 10.764C32.5181 10.968 32.2301 11.688 32.0261 11.988C31.9541 12.096 31.8941 12.216 31.9061 12.252C31.9061 12.288 31.8941 12.312 31.8581 12.288C31.8461 12.276 31.6181 12.624 31.3421 13.08C31.0781 13.524 30.6941 14.136 30.4901 14.436C29.9021 15.276 28.4741 17.1 28.3061 17.232C28.2221 17.292 28.0781 17.352 27.9941 17.352C27.7901 17.376 27.4541 17.304 27.4301 17.244C27.4301 17.22 27.3581 17.196 27.2981 17.196C27.1541 17.196 27.0941 17.112 27.0941 16.92C27.0941 16.824 27.1301 16.776 27.2261 16.74C27.3821 16.68 27.7181 16.284 28.8221 14.868C29.6261 13.836 29.8901 13.452 30.6581 12.204C31.2221 11.28 31.4621 10.656 31.3421 10.452C31.2701 10.332 31.0901 10.332 30.9221 10.44C30.8141 10.524 30.2981 10.836 30.1901 10.896C30.1421 10.92 29.9981 11.016 29.8661 11.112C29.7461 11.196 29.5541 11.328 29.4341 11.412C29.0861 11.664 29.0381 11.7 28.7741 11.928C28.6301 12.048 28.4981 12.192 28.4621 12.228C28.4381 12.276 28.2341 12.48 28.0181 12.672C27.4301 13.212 26.3981 14.34 25.7381 15.144C25.2941 15.696 25.2221 15.792 24.9701 16.08C24.8621 16.212 24.7661 16.356 24.7661 16.368C24.7661 16.404 24.6461 16.56 24.4901 16.74C24.3461 16.92 24.2021 17.1 24.1781 17.16C24.1541 17.208 24.0221 17.4 23.8781 17.604C23.7461 17.784 23.6261 17.964 23.6141 17.988C23.6141 18.024 23.4701 18.24 23.3141 18.468C23.1461 18.696 22.9661 18.972 22.9181 19.08C22.8821 19.176 22.6901 19.476 22.5221 19.74C22.1861 20.244 21.5381 21.444 21.3101 21.972C21.2381 22.128 21.1541 22.332 21.1061 22.428C20.7221 23.268 20.3141 24.732 20.3381 25.236C20.3261 25.344 20.3141 25.512 20.2901 25.608C20.1461 26.112 20.2781 26.952 20.5901 27.54C20.7821 27.912 20.9141 27.972 21.3701 27.876C21.5261 27.852 21.7781 27.792 21.9341 27.768C22.2461 27.696 22.7021 27.528 22.7741 27.444C22.7981 27.408 22.8341 27.396 22.8581 27.42C22.8821 27.432 22.9181 27.42 22.9541 27.396C22.9781 27.36 23.0981 27.3 23.2181 27.252C23.4101 27.18 23.8781 26.94 23.9741 26.844C23.9981 26.832 24.1301 26.748 24.2741 26.664C24.7061 26.4 25.2461 25.944 25.8821 25.32C26.2061 24.996 26.5181 24.684 26.5781 24.636C26.6381 24.588 26.6981 24.516 26.7101 24.492C26.7101 24.456 26.7821 24.372 26.8661 24.288C26.9501 24.216 27.0221 24.12 27.0221 24.084C27.0461 24 27.9581 23.028 27.9821 23.064C28.0181 23.124 27.3701 24.048 27.1901 24.204C27.1421 24.228 27.0581 24.276 26.9861 24.3C26.8541 24.336 26.7221 24.552 26.7221 24.708C26.7341 24.792 26.6981 24.816 26.6261 24.816C26.5541 24.816 26.4941 24.864 26.4461 24.96C26.3981 25.044 26.3261 25.14 26.2781 25.188C26.1821 25.272 26.1221 25.368 26.0981 25.512C26.0741 25.668 26.6381 25.176 27.3701 24.396C27.6461 24.096 28.4981 22.992 28.6901 22.668C28.8581 22.392 29.1461 21.996 29.4341 21.636C29.5061 21.552 29.5781 21.492 29.6021 21.492C29.6741 21.492 29.6741 21.48 29.4101 21.888C29.2781 22.104 29.1701 22.308 29.1701 22.38C29.1701 22.452 29.1461 22.512 29.1101 22.512C29.0861 22.512 29.0741 22.548 29.0741 22.596C29.0861 22.644 29.0621 22.668 29.0381 22.644C29.0141 22.632 28.9661 22.728 28.9181 22.884C28.8701 23.028 28.7861 23.208 28.7381 23.292C28.6901 23.376 28.6181 23.484 28.5941 23.544C28.5701 23.592 28.4861 23.712 28.4141 23.808C28.3541 23.892 28.2821 24 28.2701 24.036C28.2581 24.108 27.4061 25.128 27.2381 25.272C27.1661 25.332 27.0581 25.464 26.9981 25.572C26.9381 25.668 26.7701 25.86 26.6141 26.004C26.4581 26.148 26.3381 26.268 26.3261 26.292C26.3261 26.316 26.1821 26.448 26.0141 26.592C25.8341 26.736 25.6901 26.88 25.6781 26.904C25.6781 26.94 25.6181 26.964 25.5581 26.964C25.4861 26.964 25.4021 27.024 25.3181 27.144C25.2461 27.252 25.1381 27.336 25.1021 27.336C25.0661 27.336 25.0301 27.348 25.0181 27.372C25.0181 27.396 24.8501 27.516 24.6701 27.636C24.4901 27.744 24.3101 27.864 24.2741 27.888C23.9981 28.092 22.6661 28.728 22.5101 28.728C22.4861 28.728 22.3901 28.764 22.2941 28.812C21.9941 28.944 21.3701 28.908 20.9741 28.728C19.9301 28.272 19.2941 27.552 19.0661 26.604ZM28.1981 23.532C28.1621 23.568 28.1141 23.628 28.1021 23.664C28.1021 23.688 28.1261 23.676 28.1621 23.64C28.2101 23.592 28.2461 23.532 28.2581 23.496C28.2701 23.472 28.2341 23.484 28.1981 23.532ZM25.5221 26.1C25.3901 26.184 24.6221 26.856 24.6101 26.904C24.5861 27 24.6701 26.964 24.9101 26.784C25.0301 26.688 25.3781 26.436 25.6661 26.22C26.1821 25.812 26.3501 25.74 26.0981 26.028C25.9901 26.16 26.0021 26.16 26.2061 25.992C26.5781 25.68 26.7821 25.476 27.0821 25.176C27.2261 25.02 27.3821 24.852 27.4421 24.828C27.4901 24.78 27.6341 24.612 27.7421 24.444C27.8501 24.276 28.0061 24.06 28.1021 23.964C28.1741 23.868 28.2341 23.772 28.2341 23.76C28.2221 23.76 28.0661 23.916 27.8981 24.132C27.4181 24.72 26.7581 25.404 26.6501 25.404C26.6141 25.404 26.9021 25.08 27.1301 24.864C27.2021 24.792 27.3581 24.624 27.4661 24.492C27.5741 24.36 27.7661 24.132 27.8861 24C28.2461 23.544 28.0541 23.724 27.6341 24.216C27.2381 24.66 27.0221 24.888 26.7821 25.092C26.7341 25.14 26.6741 25.2 26.6741 25.212C26.6621 25.236 26.6141 25.284 26.5421 25.344C26.4701 25.392 26.3741 25.488 26.3141 25.536C26.2181 25.632 25.7021 25.992 25.5221 26.1ZM24.0101 27.192C23.6381 27.408 23.4821 27.552 23.7701 27.408C23.8901 27.36 24.0341 27.276 24.1061 27.228C24.1661 27.192 24.2741 27.132 24.3461 27.096C24.5261 27.024 24.6101 26.892 24.4541 26.94C24.3941 26.964 24.3341 26.988 24.3101 27.012C24.2981 27.024 24.1541 27.108 24.0101 27.192ZM30.5981 13.104C30.6461 13.044 30.6941 12.972 30.6821 12.96C30.6701 12.96 30.6101 12.972 30.5381 13.02C30.4421 13.068 30.4181 13.104 30.4541 13.164C30.4781 13.224 30.5141 13.2 30.5981 13.104ZM30.8621 12.696C30.8981 12.66 30.8981 12.612 30.8861 12.6C30.8741 12.576 30.8501 12.612 30.8501 12.66C30.8261 12.732 30.8381 12.732 30.8621 12.696ZM30.9941 12.48C31.0301 12.432 31.0781 12.372 31.0901 12.336C31.0901 12.312 31.0661 12.324 31.0301 12.372C30.9821 12.408 30.9461 12.468 30.9341 12.504C30.9341 12.528 30.9581 12.516 30.9941 12.48ZM31.3301 11.376C31.3061 11.412 31.2821 11.484 31.2821 11.568C31.2821 11.676 31.2941 11.652 31.4141 11.424C31.4981 11.28 31.5581 11.148 31.5461 11.136C31.5341 11.124 31.5101 11.148 31.4981 11.184C31.4861 11.256 31.4741 11.244 31.4501 11.184C31.4141 11.124 31.4141 11.124 31.3901 11.208C31.3901 11.268 31.3661 11.34 31.3301 11.376ZM31.1381 11.724C31.0901 11.724 30.8621 12.144 30.8861 12.204C30.8861 12.228 30.8621 12.264 30.8261 12.264C30.7901 12.276 30.7661 12.324 30.7661 12.384C30.7781 12.516 30.8861 12.444 30.9941 12.228C31.0301 12.12 31.1141 12.024 31.1621 12C31.2461 11.964 31.2461 11.928 31.2101 11.832C31.1861 11.772 31.1621 11.724 31.1381 11.724ZM24.6941 15.276C24.6821 15.252 23.6861 16.524 23.6741 16.584C23.6501 16.656 23.7101 16.584 24.2141 15.936C24.4901 15.588 24.7061 15.288 24.6941 15.276ZM22.5821 17.628C22.5461 17.664 22.5101 17.724 22.4981 17.76C22.4861 17.784 22.5221 17.772 22.5581 17.736C22.5941 17.688 22.6421 17.628 22.6541 17.604C22.6541 17.568 22.6301 17.58 22.5821 17.628ZM22.4141 17.892C22.3661 17.94 22.3301 18 22.3181 18.024C22.3061 18.06 22.3421 18.036 22.3781 18C22.4141 17.952 22.4621 17.892 22.4741 17.868C22.4741 17.832 22.4501 17.844 22.4141 17.892ZM21.6821 19.584C21.3701 20.112 21.2741 20.34 21.5381 19.92C21.6221 19.788 21.7181 19.656 21.7421 19.632C21.7661 19.608 21.8021 19.548 21.8141 19.512C21.8381 19.428 22.3661 18.624 22.4981 18.456C22.5581 18.396 22.6781 18.204 22.7741 18.024C22.9781 17.664 23.3501 17.088 23.5301 16.86C23.5901 16.764 23.6141 16.716 23.5781 16.728C23.4341 16.812 22.4381 18.312 21.6821 19.584ZM20.3981 22.008C20.3381 22.128 20.2661 22.272 20.2661 22.308C20.2541 22.38 20.5181 21.9 20.8061 21.372C20.9021 21.168 20.9981 20.952 21.0101 20.88C21.0221 20.82 20.9261 20.988 20.7821 21.276C20.6381 21.552 20.4581 21.888 20.3981 22.008Z" fill="white"/>
</g>
<defs>
<filter id="filter0_i_258_330" x="0" y="0" width="40" height="40" filterUnits="userSpaceOnUse" color-interpolation-filters="sRGB">
<feFlood flood-opacity="0" result="BackgroundImageFix"/>
<feBlend mode="normal" in="SourceGraphic" in2="BackgroundImageFix" result="shape"/>
<feColorMatrix in="SourceAlpha" type="matrix" values="0 0 0 0 0 0 0 0 0 0 0 0 0 0 0 0 0 0 127 0" result="hardAlpha"/>
<feOffset dx="2" dy="2"/>
<feGaussianBlur stdDeviation="4"/>
<feComposite in2="hardAlpha" operator="arithmetic" k2="-1" k3="1"/>
<feColorMatrix type="matrix" values="0 0 0 0 0 0 0 0 0 0 0 0 0 0 0 0 0 0 0.25 0"/>
<feBlend mode="normal" in2="shape" result="effect1_innerShadow_258_330"/>
</filter>
</defs>
</svg>
